<svg xmlns="http://www.w3.org/2000/svg" viewBox="0 0 102.04 124.84"><title>Asset 1</title><g id="Layer_2" data-name="Layer 2"><g id="Layer_1-2" data-name="Layer 1"><rect x="7.98" y="30.89" width="43" height="42.85" transform="translate(-30.53 50.28) rotate(-58.65)"/><rect x="44.99" y="55.06" width="32.24" height="32.13" transform="translate(-31.42 86.31) rotate(-58.65)"/><rect x="71.14" y="68.9" width="25.03" height="33.12" rx="6.05" transform="matrix(0.52, -0.85, 0.85, 0.52, -32.85, 112.44)"/><polygon points="75.07 21.23 65.69 20.02 59.38 27.05 57.64 17.76 49 13.93 57.29 9.4 58.27 0 65.14 6.49 74.38 4.51 70.33 13.05 75.07 21.23"/><polygon points="84.16 42.01 87.58 38.35 86.5 33.45 91.04 35.58 95.36 33.04 94.75 38.01 98.5 41.34 93.58 42.29 91.57 46.88 89.15 42.5 84.16 42.01"/><rect x="48.72" y="81.84" width="6" height="43"/><rect x="36.72" y="76.84" width="6" height="48" transform="matrix(0.87, 0.5, -0.5, 0.87, 55.74, -6.35)"/><rect x="61.72" y="76.84" width="6" height="48" transform="translate(-49.47 64.51) rotate(-39.66)"/></g></g></svg>