<svg xmlns="http://www.w3.org/2000/svg" viewBox="0 0 142.09 113.06"><defs><style>.cls-1{fill:#fff;}</style></defs><title>telescope-white</title><g id="Layer_2" data-name="Layer 2"><g id="Layer_1-2" data-name="Layer 1"><rect class="cls-1" x="41.21" y="22.24" width="43" height="54.22" transform="translate(-12.07 77.24) rotate(-58.65)"/><rect class="cls-1" x="83.07" y="55.06" width="32.24" height="32.13" transform="translate(-13.15 118.84) rotate(-58.65)"/><rect class="cls-1" x="109.23" y="68.9" width="25.03" height="33.12" rx="6.05" transform="matrix(0.52, -0.85, 0.85, 0.52, -14.58, 144.97)"/><polygon class="cls-1" points="113.16 21.23 103.78 20.02 97.47 27.05 95.73 17.76 87.08 13.93 95.38 9.4 96.36 0 103.23 6.49 112.47 4.51 108.42 13.05 113.16 21.23"/><polygon class="cls-1" points="122.25 42.01 125.67 38.35 124.59 33.45 129.13 35.58 133.45 33.04 132.84 38.01 136.58 41.34 131.66 42.29 129.66 46.88 127.23 42.5 122.25 42.01"/><rect class="cls-1" x="83.81" y="80.78" width="6" height="32.28"/><polygon class="cls-1" points="65.41 112.02 60.21 109.77 84.21 78.56 89.41 80.81 65.41 112.02"/><polygon class="cls-1" points="107.58 110.96 102.14 112.84 82.03 80.12 87.48 78.24 107.58 110.96"/><polygon class="cls-1" points="26.64 101.93 15.85 92.36 1.85 95.83 7.62 82.61 0 70.36 14.35 71.76 23.64 60.73 26.75 74.81 40.11 80.24 27.68 87.54 26.64 101.93"/><rect class="cls-1" x="127.05" y="73.24" width="14.23" height="9.88" transform="translate(-2.4 152.09) rotate(-58.65)"/></g></g></svg>